<?xml version="1.0" encoding="UTF-8"?>
<svg id="Layer_1" data-name="Layer 1" xmlns="http://www.w3.org/2000/svg" xmlns:xlink="http://www.w3.org/1999/xlink" viewBox="0 0 790.57 617.46">
  <defs>
    <style>
      .cls-1 {
        fill: #fadcbd;
      }

      .cls-2 {
        fill: #262626;
      }

      .cls-3 {
        fill: #ffd566;
      }

      .cls-4 {
        fill: url(#radial-gradient-5);
      }

      .cls-5 {
        fill: url(#radial-gradient-4);
      }

      .cls-6 {
        fill: url(#radial-gradient-6);
      }

      .cls-7 {
        fill: #605d5a;
      }

      .cls-8 {
        fill: #594539;
      }

      .cls-9 {
        fill: url(#radial-gradient);
      }

      .cls-10 {
        fill: #42210b;
      }

      .cls-11 {
        fill: url(#radial-gradient-2);
      }

      .cls-12 {
        fill: url(#radial-gradient-3);
      }

      .cls-13 {
        fill: #515151;
      }

      .cls-14 {
        fill: #9b643d;
      }
    </style>
    <radialGradient id="radial-gradient" cx="-537.97" cy="834.37" fx="-537.97" fy="834.37" r="4.17" gradientTransform="translate(22871.54 38914.58) scale(41.77 -45.98)" gradientUnits="userSpaceOnUse">
      <stop offset="0" stop-color="#cd8500"/>
      <stop offset=".07" stop-color="#d28d0a"/>
      <stop offset=".35" stop-color="#e5ac32"/>
      <stop offset=".61" stop-color="#f3c34e"/>
      <stop offset=".83" stop-color="#fcd060"/>
      <stop offset="1" stop-color="#ffd566"/>
    </radialGradient>
    <radialGradient id="radial-gradient-2" cx="-534.75" cy="833.76" fx="-534.75" fy="833.76" r="4.17" gradientTransform="translate(25135.17 38691.08) scale(45.71 -45.71)" xlink:href="#radial-gradient"/>
    <radialGradient id="radial-gradient-3" cx="-537.97" cy="834.37" fx="-537.97" fy="834.37" r="4.17" gradientTransform="translate(22871.54 38914.58) scale(41.77 -45.98)" gradientUnits="userSpaceOnUse">
      <stop offset="0" stop-color="#f7b548"/>
      <stop offset=".19" stop-color="#f9be5c"/>
      <stop offset=".51" stop-color="#fccb78"/>
      <stop offset=".79" stop-color="#fed28a"/>
      <stop offset="1" stop-color="#ffd590"/>
    </radialGradient>
    <radialGradient id="radial-gradient-4" cx="-540.8" cy="848.73" fx="-540.8" fy="848.73" r="4.17" gradientTransform="translate(-21922.97 106701.61) rotate(34.83) scale(77.63 -117.88)" xlink:href="#radial-gradient"/>
    <radialGradient id="radial-gradient-5" cx="-494.18" cy="775.97" fx="-494.18" fy="775.97" r="4.17" gradientTransform="translate(7401.26 8242.58) rotate(-9.79) scale(11.23 -11.23)" gradientUnits="userSpaceOnUse">
      <stop offset="0" stop-color="#cd8500"/>
      <stop offset=".07" stop-color="#d28d0a"/>
      <stop offset=".35" stop-color="#e5ac32"/>
      <stop offset=".61" stop-color="#f3c34e"/>
      <stop offset=".84" stop-color="#fcd060"/>
      <stop offset="1" stop-color="#ffd566"/>
    </radialGradient>
    <radialGradient id="radial-gradient-6" cx="-736.83" cy="915.35" fx="-736.83" fy="915.35" r="4.17" gradientTransform="translate(-3044.76 -4138.71) rotate(-180) scale(4.8 -4.65)" gradientUnits="userSpaceOnUse">
      <stop offset="0" stop-color="#9b643d"/>
      <stop offset="1" stop-color="#fadcbd"/>
    </radialGradient>
  </defs>
  <path class="cls-2" d="m759.62,350.8c-1.25-80.83-38.75-152.91-97.49-200.4-45-36.25-102.49-58.33-164.99-58.33-144.99,0-262.48,117.49-262.48,262.48s117.49,262.48,262.48,262.48,262.48-117.49,262.48-262.48v-3.75Z"/>
  <path class="cls-9" d="m367.56,254.56c10-9.17,8.33-28.75,43.75-32.08v-.83c-79.58,0-160.41,92.91-160.41,204.57,0,6.25,0,12.92.42,19.17,16.67,45,45,83.74,81.24,113.33-20.42-127.49-6.25-265.4,35-304.15Z"/>
  <path class="cls-11" d="m677.54,476.64c9.17-102.91,72.5-117.08,55.83-168.74-14.17-43.33-63.75-82.91-123.74-83.33-74.99.42-129.16,0-187.07-2.5-3.75,0-7.5,0-10.42.42l-41.66,175.82,41.66,204.57c27.08,9.17,55.83,14.58,85.83,14.58,69.58,0,132.91-27.08,179.99-71.25-2.5-20.83-2.92-44.16-.42-69.58Z"/>
  <path class="cls-12" d="m367.56,254.56c-41.66,38.33-55.41,176.24-35,304.14,23.33,18.75,50,33.75,78.74,43.75V222.48c-35,3.33-33.75,22.92-43.75,32.08Z"/>
  <path class="cls-5" d="m367.56,254.56c-41.66,38.33-55.41,176.24-35,304.14,23.33,18.75,50,33.75,78.74,43.75l43.33-92.08-43.33-287.9c-35,3.33-33.75,22.92-43.75,32.08Z"/>
  <path class="cls-1" d="m430.05,587.87s-45.83-15.83-60.41-20c-14.58-3.75-28.33,6.67-40,8.75-9.17,0-10,8.75-1.67,9.17,7.08,2.08,14.58-5.83,25-2.5,9.58,6.67,35.41,17.92,47.5,20.42,9.58,2.08,23.33,2.08,23.33,2.08l6.25-17.92Z"/>
  <path class="cls-1" d="m400.06,577.46s13.75,2.5,31.66-3.75c39.58,2.5-1.25,33.75-1.25,33.75l-6.67-1.25-23.75-28.75Z"/>
  <path class="cls-3" d="m641.29,230.4s83.74,1.67,125.82,91.24c23.33,50,68.75,219.99-101.66,268.32-170.41,48.33-238.32,17.5-238.32,17.5,0,0,12.08-17.08,5.83-34.58,135.41-16.67,177.49-66.25,211.65-97.08,15.42-55-3.33-140.82-7.92-155.41l4.58-89.99Z"/>
  <path class="cls-4" d="m472.13,567.87s1.25,34.16-9.58,47.5c61.25,3.75,92.08-2.5,92.08-2.5l9.17-40-32.08-20s-23.33,8.75-59.58,15Z"/>
  <path class="cls-1" d="m360.06,569.97s-11.25-1.25-24.17-3.75c-8.33-1.67-19.17-5.83-20.83-4.17-2.92,3.75,13.33,14.58,23.75,12.92,10.42-1.67,21.25-5,21.25-5Z"/>
  <path class="cls-1" d="m332.14,557.89c4.58-2.08,10.83,7.5,27.5,9.58,16.67,2.08-16.25,6.67-16.25,6.67,0,0-20-12.08-11.25-16.25Z"/>
  <path class="cls-13" d="m157.49.66C70.51.66,0,71.17,0,158.15s70.51,157.49,157.49,157.49,157.49-70.51,157.49-157.49S244.47.66,157.49.66Zm13.75,259.56c-4.59,3.75-10,6.25-16.25,6.25s-11.25-2.08-15.83-5.83c-4.59-3.75-6.67-9.58-6.67-16.67,0-6.24,2.08-11.24,6.67-15.83,4.16-4.16,9.58-6.66,15.83-6.66s11.66,2.08,16.25,6.66c4.58,4.17,6.66,9.59,6.66,15.83,0,7.09-2.08,12.5-6.66,16.25Zm5.41-165.82l-6.25,73.75c-.83,8.75-2.08,15.41-4.58,20-2.5,4.58-6.25,7.08-11.25,7.08-5.41,0-9.16-2.09-11.25-6.67-2.5-4.58-3.75-11.25-4.58-20.83l-4.58-71.66c-.84-13.75-1.25-24.17-1.25-30,0-8.33,2.08-14.58,6.66-19.17,4.17-4.58,10-7.08,17.08-7.08,8.75,0,14.17,2.92,17.09,8.75,2.91,5.83,4.16,14.58,4.16,25.83,0,6.67-.41,13.34-1.25,20Z"/>
  <path class="cls-1" d="m594.06,71.66l-131.66.84,1.17,182.49,131.66-.84-1.17-182.49Z"/>
  <path class="cls-1" d="m593.38,69.58l.42,92.49c0,19.17-20.83,35.83-46.25,36.25l-58.75.42c-25.41,0-46.66-15.42-46.66-35.41l-.42-92.49c0-19.17,20.83-35.83,46.25-36.25l59.16-.42c24.58-.42,46.25,16.25,46.25,35.41Z"/>
  <path class="cls-1" d="m531.71,150.83c0,20.42-10.83,38.33-27.08,47.91-8.75,5-18.33,7.92-28.75,8.33-31.25,0-56.25-24.58-56.66-54.58,0-8.33,1.67-16.67,5-23.75,4.17-7.92,9.17-15,16.25-20,9.17-7.5,21.25-11.67,34.58-11.67,18.75,0,35.41,8.75,45.41,22.5,7.08,7.08,11.25,18.75,11.25,31.25Z"/>
  <path class="cls-1" d="m600.04,132.07c12.89,0,23.33-10.26,23.33-22.92s-10.45-22.92-23.33-22.92-23.33,10.26-23.33,22.92,10.45,22.92,23.33,22.92Z"/>
  <path class="cls-10" d="m442.97,7.5c2.08-4.58,4.58-7.5,4.58-7.5,0,0,1.67,3.33,6.25,7.5,4.17,3.33,10.42,6.25,20.42,7.08,1.67,0,8.33.42,16.67.42h16.67c17.92,0,38.75-4.17,55,3.75,14.17,6.67,25.83,19.17,32.08,32.91,2.92,6.25,4.58,12.92,5.42,20v15.83h-5.42c-2.92,0-5.83-.42-8.33-.42-9.17-1.67-18.75-5-25.41-10.83-1.67-1.25-3.33-2.92-5.42-3.75-1.25-1.25-2.5-2.08-2.92-2.92-6.25-6.25-11.25-14.17-14.17-23.33l-48.33.42h-18.75l-21.67.83h-3.33s-11.25-5.42-10-21.67c1.25-7.5,4.17-13.75,6.67-18.33Z"/>
  <path class="cls-7" d="m512.63,114.58c2.99-.02,5.39-4.14,5.35-9.2-.04-5.06-2.49-9.15-5.48-9.13s-5.39,4.14-5.35,9.2c.03,5.06,2.49,9.15,5.48,9.13Z"/>
  <path class="cls-10" d="m593.38,57.08l.42,83.74c.42,35.41-28.75,64.58-65,64.58l-52.5,1.25c-31.25,0-57.08-23.33-57.91-54.16,0-8.33,2.5-17.92,5.83-25.41l112.49-.83c12.92,0,22.5-10,22.5-22.5v-46.66h34.16Z"/>
  <path class="cls-14" d="m593.79,97.76l-45.41.29.04,6.25,45.41-.29-.04-6.25Z"/>
  <path class="cls-7" d="m458.46,115c2.99-.02,5.39-4.14,5.35-9.2-.03-5.06-2.49-9.15-5.48-9.13s-5.39,4.14-5.35,9.2c.04,5.06,2.49,9.15,5.48,9.13Z"/>
  <path class="cls-6" d="m491.72,102.91v-20.42h-22.08v43.75h22.92s-.42-22.92-.83-23.33Z"/>
  <path class="cls-14" d="m430.47,102.49c0-7.92,2.92-15,8.75-20.83,5.42-5.42,12.92-8.75,20.83-8.75,16.25,0,30,12.92,30,29.16,0,7.92-2.92,15-8.75,20.83-5.42,5.42-12.92,8.75-20.83,8.75-16.67-.42-30-13.33-30-29.16Zm29.58-23.33c-6.25,0-12.08,2.5-16.67,7.08-4.58,4.58-6.67,10-6.67,16.25,0,12.5,10.83,22.92,23.75,22.92,6.25,0,12.08-2.5,16.67-7.08,4.58-4.58,6.67-10,6.67-16.25,0-12.5-10.42-22.92-23.75-22.92Z"/>
  <path class="cls-1" d="m493.38,130.41h-2.92c-7.5,0-13.33-5.42-13.33-12.92v-2.92c0-7.5,5.83-12.92,13.33-13.33h2.92c7.5,0,13.33,5.42,13.33,12.92v2.92c0,7.5-5.83,13.33-13.33,13.33Z"/>
  <path class="cls-14" d="m491.3,102.07c0-7.92,2.92-15,8.75-20.83,5.42-5.42,12.92-8.75,20.83-8.75,16.25,0,29.58,12.92,29.58,29.16,0,7.92-2.92,15-8.75,20.83-5.42,5.42-12.92,8.75-20.83,8.75-16.25,0-29.16-13.33-29.58-29.16Zm29.58-23.33c-6.25,0-12.08,2.5-16.67,7.08-4.58,4.58-6.67,10-6.67,16.25,0,12.5,10.83,22.92,23.75,22.92,6.25,0,12.08-2.5,16.67-7.08,4.58-4.58,6.67-10,6.67-16.25,0-12.5-10.42-22.92-23.75-22.92Z"/>
  <path class="cls-3" d="m454.22,267.9l143.74-.83c4.58,0,8.75-3.33,8.33-8.33l-.42-40c0-4.58-3.75-8.33-8.75-8.33l-143.32.83c-4.58,0-8.75,3.33-8.33,8.33l.42,40c-.42,5,3.75,8.33,8.33,8.33Z"/>
  <path class="cls-8" d="m503.8,157.9c3.45,0,6.25-2.8,6.25-6.25s-2.8-6.25-6.25-6.25-6.25,2.8-6.25,6.25,2.8,6.25,6.25,6.25Z"/>
</svg>